<?xml version="1.0" encoding="UTF-8"?><svg id="Layer_2" xmlns="http://www.w3.org/2000/svg" viewBox="0 0 1079.87 319.97"><defs><style>.cls-1{fill:#f9f9f9;}.cls-2{fill:#f8f8f8;}.cls-3{fill:#010101;}.cls-4{fill:#030303;}.cls-5{fill:#060606;}.cls-6{fill:#fcfcfc;}.cls-7{fill:#fefefe;}.cls-8{fill:#fdfdfd;}</style></defs><g id="Layer_1-2"><g><path d="M539.37,319.97c-160.28,0-320.56,0-480.84,0-26.16,0-46.71-13.7-55.15-36.73C1.01,276.77,.02,270.04,.02,263.15,.03,194.35-.06,125.55,.06,56.74,.12,24.6,24.05,.61,56.16,.07c1.17-.02,2.33,0,3.5,0C379.89,.06,700.12,.09,1020.35,0c22.49,0,40.03,8.47,51.87,27.8,5.62,9.18,7.66,19.36,7.65,30.07-.05,47.98-.02,95.96-.02,143.94,0,19.82,.01,39.65,0,59.47-.03,34.9-23.74,58.67-58.63,58.67-160.61,.02-321.23,0-481.84,0Z"/><path class="cls-7" d="M102.2,158.69c.48-16.83,5.06-33.91,19.44-46.8,13.51-12.12,29.61-16.2,46.32-9.04,13.19,5.65,24.63,5.29,37.64-.23,19.49-8.28,40.03-2.7,54.3,12.48,2.72,2.9,3.1,4.25-.5,6.94-27.12,20.27-24.08,59.97,5.74,75.96,2.65,1.42,3.09,2.52,2.02,5.27-5.59,14.38-12.53,27.94-23.26,39.21-11.23,11.8-21.08,13.99-36,7.51-12.51-5.43-24.66-5.5-37.18-.07-16.15,7.01-24.71,5-36.73-8.39-14.91-16.61-23.75-36.33-28.96-57.82-1.85-7.63-2.79-15.38-2.82-25Z"/><path class="cls-7" d="M549.62,244.06c0,11.83-.13,23.27,.08,34.7,.06,3.46-.84,4.76-4.4,4.44-4.12-.37-9.51,1.24-12.09-.82-2.76-2.22-.82-7.82-.86-11.93-.32-30.47,.56-60.96-.64-91.42-.12-3.12,.66-4.24,3.79-3.88,3.6,.42,8.12-1.47,10.61,.8,2.44,2.22,.42,6.92,1.49,10.45,1.77-.08,2.01-1.67,2.8-2.56,13.07-14.83,36.94-13.4,47.99,2.93,10.29,15.21,9.49,39.36-1.25,54.22-9.29,12.84-32.28,18.79-47.51,3.08Z"/><path class="cls-7" d="M461.11,243.46c0,12.53-.14,23.95,.09,35.36,.07,3.51-.86,4.71-4.4,4.38-4.1-.38-9.52,1.24-12.01-.83-2.66-2.21-.74-7.8-.8-11.91-.45-30.61,.83-61.24-.83-91.84-.14-2.53,.38-3.68,3.17-3.48,3.81,.26,8.55-1.13,11.2,.67,2.69,1.83,.93,7.05,1.8,11.44,6.34-8.63,14.24-13.08,24.35-13.5,11.9-.5,21.35,4.11,27.09,14.44,9.6,17.27,9.17,34.78-1.32,51.57-10.45,16.73-36.08,18.42-48.32,3.71Z"/><path class="cls-7" d="M339.2,251.99c3.67-11.36,7.18-22.24,10.7-33.13,7.4-22.93,14.89-45.84,22.11-68.83,1.11-3.52,2.71-4.88,6.29-4.42,2.13,.27,4.32,.05,6.49,.05,10.09,0,10.04,.02,13.06,9.38,9.95,30.84,19.88,61.69,29.98,92.48,1.25,3.8,.66,4.91-3.38,4.54-4.44-.41-9.89,1.2-13.13-.85-3.31-2.1-3.06-8.06-4.56-12.26-2.11-5.92-1.82-14.25-6.39-17.28-4.32-2.86-11.91-.76-18.07-.83-.67,0-1.33-.03-2,0-4.62,.27-10.47-1.9-13.55,.86-2.99,2.68-3.25,8.44-4.64,12.87-1.49,4.76-2.98,9.52-4.33,14.32-.62,2.2-1.56,3.3-4.11,3.17-4.63-.24-9.27-.07-14.47-.07Z"/><path class="cls-7" d="M642.35,233.05c9.4,4.96,19.06,7.6,29.51,6.08,8.2-1.19,13.55-5.55,14.9-12,1.57-7.48-1.59-13.89-9-18.35-4.16-2.51-8.79-3.94-13.25-5.76-4.96-2.03-9.62-4.57-13.83-7.88-14.83-11.68-14.46-33.39,1.19-43.97,14.71-9.95,30.52-8.63,46.41-2.92,.93,.33,2,.84,1.61,2.12-1.11,3.66-2.17,7.34-3.55,10.9-.91,2.36-2.46,.47-3.65,.07-7.65-2.6-15.35-4.44-23.49-2.51-6.15,1.46-10.81,4.62-11.89,11.23-1.03,6.31,2.03,10.87,7.09,14.33,4.86,3.32,10.41,5.18,15.71,7.55,6.13,2.74,11.93,5.95,16.65,10.79,12.75,13.09,9.11,36.72-7.49,45.32-15.62,8.1-31.79,7.03-47.83,.62-2.41-.96-3.27-2.41-2.37-5.01,1.19-3.42,2.13-6.93,3.24-10.62Z"/><path class="cls-7" d="M770.24,215.39c-.08-22.82,12.59-38.66,32.59-41.64,20.31-3.03,38.73,10.47,41.93,30.79,1.65,10.45,.72,20.61-4.35,30.05-7.73,14.37-23.79,21.55-40.71,18.43-15.46-2.85-26.83-15.3-28.84-31.59-.28-2.31-.47-4.63-.61-6.05Z"/><path class="cls-7" d="M950.93,217.63c-7.32,0-14.65,.15-21.97-.07-3.11-.09-3.55,1.05-3.25,3.77,1.12,10.12,8.5,17.6,19.02,18.67,7.51,.76,15.01,.37,22.19-2.13,2.87-1,3.56-.37,4.11,2.5,1.73,9.06,1.89,9.12-7.2,11.21-8.5,1.96-17.13,2.73-25.76,1.17-17.22-3.12-27.75-16.13-28.9-35.61-.48-8.09,.95-15.89,4.37-23.29,7.77-16.82,25.99-24.57,43.44-18.22,13.31,4.84,18.2,15.83,19.69,28.74,1.53,13.23,1.31,13.26-11.76,13.26-4.66,0-9.32,0-13.98,0Z"/><path class="cls-7" d="M741.9,156.04c0,5.83,.14,10.82-.06,15.8-.1,2.63,.73,3.51,3.37,3.39,4.15-.19,8.33,.06,12.49-.09,2.39-.09,3.04,.74,3.15,3.12,.42,9.76,.52,9.75-8.96,9.75q-9.99,0-9.99,10.16c0,9.32-.11,18.65,.07,27.97,.21,10.81,3.81,14.05,14.42,13.06,2.34-.22,3.36,.06,3.29,2.65-.27,10.72,3.2,10.32-9.67,11.43-15.27,1.32-22.91-4.84-24.42-20.14-1.31-13.27-.46-26.62-.42-39.94,.01-3.96-.68-5.79-5.06-5.3-1.95,.22-5.3,1.3-5.85-.91-.86-3.44-.69-7.35,0-10.87,.38-1.95,3.29-1.08,4.92-.86,4.72,.62,6.32-.84,6.02-5.83-.48-8.14-.13-8.16,7.65-10.56,2.83-.88,5.66-1.77,9.06-2.83Z"/><path class="cls-8" d="M875.99,188.48c1.18-1.96,2.22-3.95,3.5-5.77,4.33-6.19,10.29-9.18,17.87-9.02,2.36,.05,3.86,.63,3.43,3.41-.15,.97-.02,1.99-.03,2.99-.03,2.99,.93,6.54-.36,8.82-1.35,2.41-5.15,.5-7.86,.91-8.76,1.32-14.74,8.98-14.92,20.15-.2,11.8-.05,23.61-.05,35.42q0,6.58-6.59,6.58c-10.73,0-10.7,0-10.74-10.94-.07-20.45-.12-40.91-.36-61.36-.04-3.18,.27-4.68,4.11-4.62,10.56,.16,10.54-.04,11.16,10.48,.05,.89-.47,1.99,.84,2.94Z"/><path class="cls-7" d="M226.09,55.31c-.71,20.56-16.54,38.62-35.89,41.34-4.4,.62-5.4-.73-5.23-4.88,.8-19.36,17.68-38.5,37-41.63,4.08-.66,4.31-.37,4.12,5.16Z"/><path class="cls-8" d="M349.65,81.24c0-7.32,.11-14.64-.06-21.96-.06-2.56,.78-3.42,3.28-3.72,5.81-.68,11.64-1.05,17.42-.3,17.06,2.23,25.35,15.1,21.25,32.68-2.7,11.56-10.68,18.28-23.94,19.74-5.79,.64-12.76,2.07-17-1.15-3.14-2.38-.72-9.38-.92-14.32-.15-3.65-.03-7.32-.03-10.98Z"/><path class="cls-8" d="M698.44,102.6c-5.19,5.65-10.93,6.83-17.07,5.08-6.2-1.77-9.1-6.8-10.56-12.78-1.18-4.82-.88-9.56,.77-14.21,4.23-11.86,15-15.23,26.01-7.49,0-5.97,.26-11.52-.09-17.02-.24-3.77,1.64-3.84,4.45-3.9,2.86-.06,4.07,.48,4.04,3.78-.14,15.62,.06,31.24-.02,46.86,0,1.69,1.78,4.72-2.18,4.77-2.99,.03-6.69,.92-5.35-5.1Z"/><path class="cls-8" d="M474.23,81.38c-2.17,7.67-4.46,15.31-6.46,23.03-.75,2.9-2.33,3.45-5,3.37-2.53-.08-4.21-.2-5.04-3.3-2.75-10.27-5.96-20.42-8.83-30.66-.35-1.26-2.76-3.78,.75-4.01,2.52-.16,6.15-1.89,7.12,2.88,1.68,8.31,3.62,16.56,5.62,25.55,3.9-8.36,5.47-16.84,8.02-24.99,.7-2.23,1.3-3.76,4.22-3.7,2.82,.05,4.02,.81,4.71,3.68,1.97,8.21,4.35,16.33,7.41,24.54,2.06-8.03,4.49-16,6.05-24.13,.99-5.18,4.34-3.96,7.45-3.89,2.06,.05,1.18,1.5,.87,2.52-3.34,10.97-6.83,21.89-9.98,32.91-1.01,3.52-3.48,2.22-5.57,2.53-2.42,.35-3.46-.69-4.06-3.1-1.97-7.84-4.23-15.61-6.38-23.41-.29,.06-.58,.12-.88,.18Z"/><path class="cls-6" d="M899.51,74.71c5.05-5.76,10.27-7.07,16.1-4.88,5.96,2.25,7.76,7.62,8.09,13.24,.43,7.29,.02,14.63,.22,21.94,.1,3.41-2.11,2.74-3.97,2.66-1.91-.08-4.57,1.07-4.48-2.71,.14-5.98,.06-11.97,.02-17.96-.05-7.61-2.52-11.01-7.85-10.94-5.42,.07-8.08,3.58-8.13,10.82-.04,5.82-.23,11.65,.07,17.45,.19,3.79-2.04,3.33-4.42,3.4-2.53,.07-4.32,.14-4.28-3.49,.2-16.13,.2-32.26,0-48.38-.04-3.56,1.62-3.57,4.22-3.57,2.79,0,4.73,.04,4.49,3.87-.36,5.77-.09,11.57-.09,18.54Z"/><path class="cls-8" d="M617.91,88.28c.07,11.71-7.81,20.24-18.67,20.22-10.6-.02-18.07-8.08-18.12-19.54-.05-11.49,7.69-19.87,18.39-19.92,10.65-.05,18.33,7.98,18.4,19.24Z"/><path class="cls-8" d="M777.88,88.67c-.08,11.44-7.9,19.8-18.57,19.83-10.77,.04-18.4-8.3-18.23-19.94,.16-11.5,7.99-19.64,18.79-19.51,10.59,.12,18.09,8.28,18.01,19.62Z"/><path class="cls-6" d="M797.74,75.17c2.96-3.26,5.55-5.28,8.9-5.98,8.7-1.84,15.51,3.36,16.17,13.04,.52,7.62,.11,15.29,.22,22.94,.05,3.91-2.83,2.26-4.61,2.51-2.13,.3-3.84,.16-3.74-2.95,.2-6.65,.2-13.31,0-19.95-.2-6.39-4.08-9.78-9.51-8.53-4.35,1-6.32,4.07-6.38,8.37-.09,6.48-.23,12.98,.04,19.45,.14,3.39-1.36,3.81-4.13,3.7-2.65-.1-4.69,.17-4.58-3.78,.28-9.64-.09-19.29,.06-28.93,.03-1.81-2.13-4.91,2.02-5.38,3.42-.39,6.41-.28,5.57,5.5Z"/><path class="cls-8" d="M439.06,88.65c-.06,11.53-7.75,19.78-18.49,19.83-10.75,.05-18.44-8.33-18.28-19.91,.16-11.45,8.05-19.64,18.8-19.53,10.61,.11,18.02,8.2,17.96,19.6Z"/><path class="cls-8" d="M519.98,74.94c3.64-3.42,6.52-5.5,10.39-5.91,7.68-.82,13.04,3.02,14.54,11.05,1.57,8.4,.53,16.93,.65,25.41,.05,3.76-3.14,1.88-4.92,2.17-1.79,.29-3.66,.37-3.59-2.58,.15-6.49,.1-12.98,.02-19.47-.08-6.38-2.71-9.56-7.68-9.53-5.14,.02-8.17,3.49-8.27,9.75-.1,5.99-.27,12,.07,17.97,.2,3.62-1.36,3.93-4.33,4.04-3.33,.11-4.18-.95-4.12-4.21,.16-9.65-.14-19.3-.07-28.95,.01-1.82-2.1-5.04,2.34-4.99,3.03,.03,6.64-.81,4.96,5.28Z"/><path class="cls-6" d="M956.2,90.92c-2.99,0-6,.22-8.97-.05-3.92-.36-3.56,1.49-2.51,4.07,1.35,3.34,3.73,5.37,7.24,6.19,3.66,.86,7.31,.41,10.89-.21,2.22-.38,3.66-.83,4.12,2.21,.41,2.68-.53,3.64-2.95,3.89-2.47,.26-4.93,.76-7.41,.88-9.68,.46-15.83-2.78-18.92-9.84-3.58-8.18-1.73-18.52,4.37-24.49,4.99-4.89,12.95-6.19,18.89-3.08,5.67,2.96,9.58,11.38,8.51,17.86-.35,2.12-1.29,2.7-3.3,2.61-3.32-.14-6.65-.04-9.97-.04Z"/><path class="cls-8" d="M650.02,103.72c-3.41,3.49-7.02,4.85-11.26,4.64-5.2-.25-9.38-3.17-10.71-7.53-1.47-4.8,.09-9.87,4-13.03,4.24-3.42,9.32-4.38,14.51-4.49,3.13-.06,3.15-1.38,2.51-3.7-.83-2.98-2.83-4.37-5.77-4.64-3.04-.28-6,.14-8.8,1.34-1.49,.64-2.83,1.38-3.29-.98-.29-1.5-1.5-3.27,.91-4.2,6.39-2.48,12.88-3.61,19.3-.34,5.54,2.82,6.34,8.15,6.47,13.65,.15,6.49,.26,12.98,.31,19.47,.01,1.38,1.59,3.84-1.39,3.67-2.04-.12-5.27,2.06-6.08-2.07-.08-.43-.33-.83-.72-1.77Z"/><path class="cls-8" d="M861.88,87.81c0-2.66-.12-5.34,.03-7.99,.15-2.54-.24-4.24-3.39-3.81-2.21,.31-2.37-1.24-2.28-2.88,.09-1.58-.48-3.72,2.23-3.41,3.11,.35,3.56-1.22,3.46-3.82-.09-2.45,5.42-5.97,7.49-4.95,1.37,.68,.87,2.1,.72,3.09-.69,4.55,1.02,6.49,5.64,5.63,3.89-.73,4,1.75,3.72,4.46-.31,3.05-2.8,1.98-4.27,1.81-4.25-.5-5.45,1.16-5.11,5.26,.4,4.8,.1,9.65,.28,14.47,.13,3.42,1.56,5.91,5.52,5.41,2.69-.34,2.93,1.08,3.03,3.19,.1,2.1-.21,3.34-2.66,3.84-8.15,1.66-13.53-2.05-14.23-10.32-.28-3.31-.05-6.66-.05-9.98h-.14Z"/><path class="cls-1" d="M568.83,80.01c0,7.97-.16,15.95,.08,23.92,.09,3.16-.91,4.15-3.93,3.84-2.39-.24-4.86,.69-4.79-3.54,.24-16.11,.24-32.22,0-48.33-.06-4.16,2.3-3.39,4.74-3.59,2.94-.25,4.09,.55,3.98,3.79-.25,7.96-.08,15.94-.08,23.92Z"/><path class="cls-5" d="M879.65,210.09v40.72h-.48v-40.71h.48Z"/><path d="M588.29,214.68c-.07,5.18-1.21,11.35-4.73,16.85-4.59,7.18-11.85,10.11-20.29,8.35-7.05-1.47-12.41-7.46-13.32-15.64-.73-6.61-.8-13.33,.06-19.93,1.29-10,7.58-16.19,16.67-17.01,8.66-.78,15.92,4.31,19.33,13.44,1.53,4.11,2.23,8.34,2.28,13.94Z"/><path d="M461.13,213.9c-.21-4.91-.03-10.21,2.01-15.28,5.17-12.87,21.52-15.54,30.6-5.01,8.68,10.07,8.58,30.41-.23,40.42-5.16,5.86-11.75,7.33-19.06,5.7-6.89-1.54-10.57-6.49-12.42-12.99-1.16-4.06-.95-8.24-.9-12.84Z"/><path class="cls-3" d="M383.58,160.82c4.83,15.74,9.15,30.03,13.63,44.26,.7,2.21,.04,2.62-1.92,2.61-7.65-.04-15.31-.08-22.96,.02-2.65,.04-2.54-1.09-1.93-3.07,4.3-14.13,8.52-28.28,13.19-43.83Z"/><path d="M787.58,214.05c.01-6.93,1.19-13.56,5.31-19.36,8.07-11.36,22.77-11.03,30.31,.65,6.49,10.06,6.25,27.73-.51,37.49-8.03,11.6-23.14,11.3-30.62-.65-3.46-5.52-4.51-11.7-4.49-18.12Z"/><path class="cls-3" d="M942.91,205.64c-4.81,0-9.63,0-14.44,0-1.56,0-3.13,.13-2.72-2.27,1.69-9.93,9.57-21.09,22.9-17.51,7.12,1.91,12.47,9.86,12.1,17.55-.11,2.31-1.35,2.24-2.91,2.24-4.98-.01-9.96,0-14.94,0Z"/><path d="M357.65,81.02c0-5.31,.11-10.62-.05-15.93-.07-2.31,.53-3.21,2.98-3.27,6.39-.17,12.96-.47,17.8,4.42,6.65,6.72,5.98,15.14,3.64,23.35-2.05,7.2-7.65,10.55-14.82,11.37-9.54,1.1-9.55,1.04-9.55-8.48,0-3.82,0-7.63,0-11.45Z"/><path class="cls-2" d="M355.02,57.62c-3.66,.1-3.04,2.68-3.04,4.8-.02,12.47-.01,24.94-.01,37.41v5.41c-1.59-1.55-.96-3.01-.96-4.25-.06-13.3,0-26.6-.07-39.9-.01-2.75,.44-4.63,4.08-3.47Z"/><path class="cls-3" d="M697.59,87.12c0,10.06-3.33,14.68-9.39,14.44-5.96-.23-10.05-6.08-9.67-13.89,.11-2.34,.54-4.61,1.68-6.69,2.26-4.12,5.77-5.85,10.37-5.08,4.24,.7,5.99,3.81,6.7,7.65,.3,1.62,.28,3.29,.31,3.57Z"/><path class="cls-3" d="M589.64,88.95c-.02-8.04,4.07-13.79,9.83-13.8,5.77,0,9.74,5.76,9.57,13.9-.16,7.78-4.24,13.26-9.85,13.26-5.68,0-9.52-5.37-9.55-13.37Z"/><path class="cls-3" d="M769.03,88.52c-.01,8.03-4.1,13.77-9.83,13.8-5.82,.03-9.7-5.57-9.59-13.83,.1-7.75,4.18-13.3,9.79-13.34,5.64-.04,9.64,5.52,9.63,13.37Z"/><path class="cls-3" d="M430.25,88.48c0,8.1-4,13.79-9.75,13.85-5.78,.07-9.77-5.61-9.68-13.79,.09-7.68,4.2-13.32,9.78-13.39,5.63-.07,9.65,5.47,9.64,13.32Z"/><path class="cls-5" d="M944,84.89c1.72-7.63,4.8-10.45,10.18-9.95,2.1,.19,3.85,1.01,5.15,2.65,1.48,1.87,2.73,4.2,1.86,6.38-.78,1.97-3.26,.81-4.96,.87-3.96,.16-7.94,.05-12.23,.05Z"/><path class="cls-4" d="M649.9,92.75c.24,5.05-1.89,8.09-6.35,9.21-2.71,.68-5.41,.32-6.86-2.55-1.53-3.03-.96-5.88,1.6-8.07,2.83-2.42,6.38-2.72,9.87-2.49,3.12,.2,.99,2.94,1.72,3.9Z"/></g></g></svg>