<?xml version="1.0" encoding="UTF-8"?><svg id="Layer_2" xmlns="http://www.w3.org/2000/svg" viewBox="0 0 1079.89 319.96"><defs><style>.cls-1{fill:#f7f7f7;}.cls-2{fill:#f9f9f9;}.cls-3{fill:#f8f8f8;}.cls-4{fill:#010101;}.cls-5{fill:#060606;}.cls-6{fill:#050505;}.cls-7{fill:#68cab1;}.cls-8{fill:#fcfcfc;}.cls-9{fill:#fefefe;}.cls-10{fill:#fbfbfb;}.cls-11{fill:#fdfdfd;}.cls-12{fill:#fec366;}.cls-13{fill:#90dfad;}.cls-14{fill:#69fedb;}.cls-15{fill:#63f7d1;}.cls-16{fill:#66fed3;}.cls-17{fill:#b7f0a6;}.cls-18{fill:#9de5ab;}.cls-19{fill:#b53a91;}.cls-20{fill:#bb3b89;}.cls-21{fill:#d13f68;}.cls-22{fill:#b0eda7;}.cls-23{fill:#af399a;}.cls-24{fill:#da4159;}.cls-25{fill:#a3e7a9;}.cls-26{fill:#bef3a5;}.cls-27{fill:#aaeaa9;}.cls-28{fill:#c03c80;}.cls-29{fill:#cc3e6e;}.cls-30{fill:#c53d79;}.cls-31{fill:#d54061;}.cls-32{fill:#c7f7a3;}.cls-33{fill:#c93e73;}.cls-34{fill:#a938a2;}.cls-35{fill:#40a2bc;}.cls-36{fill:#43aabf;}.cls-37{fill:#97e2ab;}.cls-38{fill:#a338ab;}.cls-39{fill:#88dbae;}.cls-40{fill:#52cec7;}.cls-41{fill:#9b37b4;}.cls-42{fill:#60f0d0;}.cls-43{fill:#59e0cc;}.cls-44{fill:#57daca;}.cls-45{fill:#49b9c2;}.cls-46{fill:#55d5c9;}.cls-47{fill:#5de8ce;}.cls-48{fill:#76d3b1;}.cls-49{fill:#46b1c0;}.cls-50{fill:#81d8af;}.cls-51{fill:#4cbfc4;}.cls-52{fill:#4fc7c6;}</style></defs><g id="Layer_1-2"><path d="M539.69,319.96c-160.28,0-320.56,0-480.84,0-26.35,0-46.74-13.45-55.34-36.44C1.1,277.06,.03,270.35,.03,263.46c0-68.97-.09-137.94,.04-206.91C.14,24.68,24.02,.71,55.85,.07c1.17-.02,2.33-.01,3.5-.01C379.74,.06,700.14,.08,1020.53,0c22.51,0,40.01,8.6,51.79,27.95,5.69,9.35,7.57,19.72,7.56,30.6-.07,67.64-.04,135.27-.03,202.91,0,4-.23,7.96-.84,11.94-3.83,24.98-25.73,44.98-50.98,46.38-2.99,.17-5.99,.18-8.99,.18-159.78,0-319.56,0-479.34,0Z"/><path class="cls-9" d="M365.83,175.69c7.16,0,14.33,.12,21.49-.06,2.77-.07,3.6,.76,3.84,3.57,1.73,20.56-4.1,37.96-22.52,48.7-19.89,11.6-40.34,10.55-59.52-1.95-26.64-17.35-32.6-52.47-13.77-77.48,19.4-25.76,55.29-30.32,79.66-10.21,2.24,1.85,3.05,3.03,.39,5.21-2.69,2.21-4.63,6.04-7.6,7.02-3.24,1.07-5.59-3.21-8.52-4.86-13.24-7.43-30.93-6.14-43.29,3.44-12.72,9.85-18.18,27.15-13.6,43.1,4.26,14.87,17.46,26.21,32.67,27.79,11.7,1.22,22.64-.65,31.59-9.06,4.9-4.6,7.48-10.46,8.89-16.98,.55-2.53-.03-3.13-2.53-3.1-9.5,.12-19-.08-28.49,.12-3.19,.07-4.27-.69-4.25-4.09,.04-11.18-.11-11.18,11.08-11.18,4.83,0,9.66,0,14.5,0Z"/><path class="cls-9" d="M606.88,227.72c-12.03,10.98-29.23,10.12-41.41-1.54-13.77-13.19-14.85-34.72-2.48-49.27,11.78-13.85,28.92-15.85,43.98-4.69-.79-4.56,1.41-5.24,5.15-5.14,9.8,.26,9.8,.07,9.8,9.97,0,17.15,0,34.31,0,51.46,0,4.17-.21,8.31-.99,12.42-2.77,14.54-12.54,24.09-26.62,25.89-15.56,1.99-29.38-4.82-35.77-17.42-1.21-2.38-.95-3.58,1.61-4.3,.96-.27,1.91-.63,2.77-1.12,4.71-2.66,7.94-3.19,11.66,2.64,4.64,7.28,12.78,7.72,20.7,5.49,7.61-2.15,10.6-8.1,11.52-15.33,.35-2.75,.06-5.58,.06-9.05Z"/><path class="cls-9" d="M761.84,132.02c.23-1.5,1.43-1.09,2.32-1.1,12.16,0,24.33-.3,36.47,.13,14.76,.52,26.68,10.65,29.29,24.13,2.97,15.32-3.31,28.97-16.26,35.27-6.3,3.07-13.05,3.58-19.95,3.61-5.43,.03-12.68-2.41-15.76,.99-2.69,2.96-.83,10.1-.87,15.39-.06,6.83-.11,13.66,.04,20.48,.05,2.39-.68,3.02-3.07,3.12-12.46,.55-12.46,.62-12.46-11.66,0-27.98,0-55.95,.01-83.93,0-1.82,.17-3.64,.25-5.46,1.93-.07,1.51,1.41,1.51,2.45,.03,31.17,.02,62.33,.04,93.5,.01-30.75,.06-61.5-.05-92.25-.01-3.26,.84-4.32,4.19-4.25,9.71,.21,19.42,.08,29.13-.17,.64-.44-.27-1.13,.08-.56,.15,.24,.07,.43-.23,.44-11.56,.46-23.12,.76-34.67-.14Z"/><path class="cls-9" d="M921.94,224.64c-12.28,12.85-24.39,15.05-37.52,7.07-8.29-5.03-12.15-12.49-11.62-22.18,.49-9.06,5.3-15.31,13.24-19.03,11.56-5.41,23.44-5.23,35.62-.96,.09-5.93-2.89-9.83-7.6-12.57-7.69-4.46-17.6-3.04-23.7,3.59-1.56,1.7-2.6,2.02-4.51,.93-2.01-1.15-4.13-2.22-6.32-2.93-4.18-1.36-4.47-3.15-1.76-6.59,8.37-10.63,24.24-14.86,39.08-10.08,13.18,4.24,20.65,14.3,20.92,28.92,.25,13.31,0,26.62,.16,39.93,.03,2.73-.89,3.57-3.42,3.26-.98-.12-1.99-.02-2.99-.02q-8.98,0-9.58-9.34Z"/><path class="cls-9" d="M957.1,265.98c4.98-10.6,9.48-20.57,14.36-30.35,1.56-3.13,1.62-5.64,.18-8.82-8.75-19.39-17.31-38.86-25.93-58.31-.52-1.18-1-2.37-1.86-4.45,5.56,0,10.49,.14,15.41-.06,2.59-.11,2.91,1.7,3.61,3.32,5.89,13.56,11.76,27.13,17.67,40.69,.3,.69,.21,1.69,1.74,2.03,5.07-12.65,10.18-25.36,15.25-38.09q3.17-7.96,11.9-7.9c2.97,.02,5.94,0,9.69,0-3.68,8.53-7.04,16.41-10.47,24.26-10.58,24.21-21.3,48.35-31.66,72.65-1.73,4.05-3.77,5.57-8.05,5.1-3.61-.4-7.3-.08-11.85-.08Z"/><path class="cls-9" d="M469.09,200.41c0,19.87-15.68,35.34-35.68,35.23-20.04-.11-35.55-15.66-35.43-35.53,.13-19.89,15.75-35.32,35.72-35.25,19.95,.06,35.4,15.58,35.39,35.55Z"/><path class="cls-9" d="M510.95,164.87c19.95-.09,35.58,15.28,35.79,35.21,.21,19.78-15.35,35.41-35.41,35.56-19.99,.15-35.69-15.31-35.72-35.19-.03-19.97,15.39-35.49,35.34-35.58Z"/><path class="cls-16" d="M94.2,265.3c-3.23-.89-4.68-3.2-5.1-6.34-.13-19.87-.13-39.74-.02-59.6,.66-3.71,3.5-3.94,6.42-3.98,10.27-.16,20.53,.45,30.8,.02,9.41-.4,18.84,.49,28.26-.02,1.98-.11,3.99-.18,5.84,.79,.46,.26,.77,.64,.96,1.13-.42,3.1-2.74,4.96-4.61,7.12-2.45,2.32-4.81,4.73-7.17,7.14-2.72,2.62-5.37,5.31-8.01,8.01-3.03,2.94-5.99,5.95-8.96,8.95-2.4,2.3-4.73,4.67-7.05,7.04-2.71,2.63-5.37,5.31-8.01,8.02-3.06,2.98-6.06,6-9.04,9.06-3.31,3.23-6.54,6.54-9.83,9.79-1.29,1.27-2.48,2.7-4.48,2.86Z"/><path class="cls-9" d="M690.49,164.87c15.18,.02,29.26,11.26,32.31,24.3,.71,3.04-1.53,2.92-2.96,3.52-13.18,5.54-26.37,11.08-39.65,16.39-3.46,1.38-3.84,2.59-1.53,5.5,7.11,8.96,21.57,9.6,29.45,.6,2.67-3.05,4.26-2.6,6.67-.53,.12,.11,.29,.17,.43,.26,9.05,5.83,9.05,6.25,.24,13.11-11.58,9.01-27.81,10.07-40.35,2.62-12.44-7.39-18.55-21.32-16.19-36.95,2.12-14.09,11.94-24.87,25.64-28.02,2.41-.55,4.93-.67,5.95-.8Z"/><path class="cls-12" d="M199.03,159.85c11.67,6.24,23.48,12.25,34.97,18.82,7.03,4.02,7.02,10.22-.02,14.27-11.46,6.61-23.24,12.68-34.88,18.97-5.3-2.46-8.12-7.76-12.7-11.05-2.03-2.08-3.83-4.38-6.01-6.31-2.18-2.28-4.47-4.46-6.66-6.74-.47-.51-.86-1.07-1.12-1.72-.09-.45-.07-.9,.05-1.35,.93-1.81,2.06-3.46,3.75-4.67,2.7-1.95,4.83-4.49,7.17-6.83,3.65-3.6,7.23-7.28,10.9-10.85,1.26-1.23,2.36-2.88,4.53-2.54Z"/><path class="cls-11" d="M633.92,180.95c0-15.63,.1-31.27-.08-46.9-.04-3.39,.73-4.52,4.33-4.49,11.43,.11,11.43-.05,11.43,11.34,0,29.27-.07,58.55,.08,87.82,.02,3.82-.78,5.12-4.87,5.02-10.89-.27-10.9-.05-10.9-10.87v-41.91Z"/><path class="cls-11" d="M859.89,182.55c0,15.81-.1,31.61,.08,47.42,.04,3.25-.81,4.13-4.08,4.11-11.63-.07-11.63,.06-11.63-11.56,0-28.95,.09-57.9-.1-86.85-.03-4.02,1.14-4.93,4.96-4.85,10.77,.22,10.77,.05,10.77,10.8,0,13.64,0,27.29,0,40.93Z"/><path class="cls-8" d="M554.26,54.12c0,10.92,.03,21.85-.03,32.77-.01,1.89,1.08,4.36-2.76,4.41-3.97,.04-3.16-2.44-3.16-4.63-.02-12.66-.06-25.32,.05-37.97,.01-1.56-1.26-4.26,1.49-4.5,2.54-.22,5.52-1.35,7.52,2.04,5.17,8.73,10.62,17.29,15.97,25.92,1.58,2.55,3.18,5.08,4.8,7.67,1.69-.87,.75-2.35,.75-3.46,.02-9.66-.04-19.32-.15-28.98-.02-2.03,.03-3.44,2.81-3.43,2.7,0,3.34,.91,3.32,3.47-.11,13.16-.01,26.32-.11,39.47-.01,1.43,1.14,3.82-1.27,4.16-2.25,.32-4.82,1.02-6.56-1.94-4.82-8.16-9.92-16.16-14.91-24.22-2.26-3.65-4.53-7.3-6.79-10.95l-.98,.18Z"/><path class="cls-8" d="M541.08,67.54c.04,13.81-10.45,24.42-24.2,24.47-13.62,.05-24.46-10.69-24.54-24.28-.07-13.79,10.9-24.85,24.6-24.79,13.57,.06,24.1,10.79,24.14,24.61Z"/><path class="cls-8" d="M325.31,66.03c1.67,0,3.33,0,5,0,7.28,0,7.57,.35,6.36,7.49-2.13,12.58-12.96,20.03-26.58,18.3-12.73-1.62-21.8-12.67-20.85-25.61,.7-9.55,5.15-16.91,13.9-20.98,8.25-3.83,16.56-3.3,24.23,1.83,1.23,.83,4.32,1.47,2,4.4-1.69,2.12-2.9,2.12-5.18,.49-7.8-5.59-17.55-4.37-23.89,2.63-6.36,7.02-6.77,17.46-.97,24.75,5.69,7.15,15.97,9.19,23.86,4.57,1.69-.99,3.21-2.39,4.51-3.87,1.79-2.04,3.45-4.87,2.59-7.24-.89-2.45-4.09-.76-6.25-1.02-2.14-.26-4.33-.05-6.49-.06-1.96,0-3.89,.45-4-2.81-.11-3.29,1.77-2.89,3.76-2.88,2.67,.01,5.33,0,8,0Z"/><path class="cls-10" d="M344.33,67.81c0-6.82,.1-13.64-.05-20.45-.06-2.64,.84-3.43,3.42-3.38,7.15,.15,14.3,.11,21.45,.01,2.11-.03,2.93,.55,2.89,2.79-.04,2.07-.5,3-2.78,2.94-4.99-.13-9.98,.1-14.96-.09-2.87-.11-4.07,.46-4.1,3.76-.1,11.48-.25,11.48,11.27,11.48,2,0,4,.08,5.99-.02,1.97-.1,2.54,.74,2.57,2.64,.04,2.08-.5,3.02-2.77,2.96-4.65-.13-9.31-.04-13.97-.03-1.29,0-2.91-.28-2.96,1.7-.08,3.82-.08,7.65,.01,11.47,.05,2.13,1.84,1.51,3.02,1.52,5.15,.06,10.31,.12,15.46-.01,2.25-.06,3.28,.42,3.22,2.98-.05,2.26-.47,3.24-3.01,3.18-7.15-.16-14.3-.17-21.45,0-2.72,.06-3.37-.97-3.31-3.49,.14-6.65,.05-13.3,.05-19.95Z"/><path class="cls-2" d="M390.27,70.54c0-4.32,0-8.64,0-12.96q0-7.88-7.65-7.89c-.83,0-1.67-.06-2.49,0-1.96,.15-3.02-.33-3.08-2.69-.06-2.55,1.01-3.03,3.24-3.01,8.81,.09,17.61,.07,26.42,0,2-.02,3.08,.38,3,2.73-.07,2.03-.52,2.95-2.79,3.02-3.41,.11-8.15-1.69-9.87,.87-1.72,2.55-.67,7.02-.69,10.65-.05,8.64-.03,17.28,0,25.92,0,2.21,.36,4.16-3.12,4.12-3.63-.04-2.95-2.26-2.96-4.32-.02-5.48,0-10.96,0-16.45Z"/><path class="cls-10" d="M455.95,70.17c0-5.83-.13-11.67,.06-17.49,.08-2.5-.77-3.21-3.13-3.03-2.32,.18-4.67-.09-6.99,.07-2.39,.17-3.16-.72-3.17-3.12-.01-2.51,1.29-2.59,3.14-2.58,8.83,.04,17.66,.09,26.49-.03,2.26-.03,2.77,.81,2.78,2.9,.01,2.19-.75,2.82-2.89,2.86-3.28,.06-7.68-1.57-9.56,.68-2.16,2.58-.64,7.02-.68,10.64-.1,8.83-.07,17.66,0,26.49,.02,2.19,.03,3.71-3.02,3.76-3.07,.05-3.07-1.47-3.04-3.65,.07-5.83,.02-11.66,.02-17.49Z"/><path class="cls-1" d="M436.34,67.55c0,6.82-.07,13.65,.04,20.47,.03,2.23-.41,3.32-2.98,3.27-2.32-.05-3.21-.66-3.19-3.12,.1-13.65,.08-27.29,.01-40.94-.01-2.25,.5-3.29,3.03-3.27,2.39,.01,3.18,.74,3.13,3.13-.13,6.82-.04,13.65-.04,20.47Z"/><path class="cls-28" d="M148.86,210.59c2.24-2.27,4.49-4.53,6.73-6.8,2.75-.3,2.94,2.07,3.11,3.61,.97,8.92,1.55,17.86-.43,26.74-2.76,1.53-5.51,3.07-8.27,4.6-.64-.57-1.13-1.27-1.17-2.11-.47-8.68-.86-17.36,.03-26.03Z"/><path class="cls-22" d="M164.31,140.88c2.75,1,5.31,2.36,7.63,4.15-1.83,10.11-.67,20.28-.72,30.43-.01,2.22,.29,4.91-3.21,5.05-2.95-.61-4.66-2.57-5.69-5.26-.8-10.31,1.03-20.63-.11-30.95-.14-1.28-.61-3.52,2.09-3.42Z"/><path class="cls-29" d="M173.14,185.92l.89,1c1.34,2.07,1.36,4.39,1.33,6.73-.13,10.46-.32,20.91-.3,31.37-1.47,1.89-4.08,1.67-5.78,3.12-3.69-.3-2.01-3.04-2.08-4.83-.42-10.2-.09-20.43-.93-30.62-.03-1.09,.33-2.05,.96-2.93,1.78-1.57,2.82-4.29,5.92-3.85Z"/><path class="cls-17" d="M168.02,179.95c2.06-.5,2.09-1.99,2.01-3.73-.3-6.82-.67-13.64-.67-20.46,0-3.7-.03-7.58,2.58-10.72,1.96,.58,3.72,1.54,5.26,2.89,.16,7.61-.51,15.19-.77,22.78-.12,3.51,1.07,6.85,.57,10.3l-3.83,4.02c-2.38,.74-3.28-1.29-4.64-2.46-.52-.8-1.14-1.58-.52-2.61Z"/><path class="cls-26" d="M177,181c-3.44-4.21-1.75-9.17-1.64-13.72,.15-6.46-.85-13.11,1.84-19.36,2.33,1.4,5.15,1.9,7.14,3.9,.95,3.57-.68,7.01-.44,10.67,.25,3.81-.05,7.76,.19,11.66-2.11,2.55-4.22,5.1-7.09,6.86Z"/><path class="cls-20" d="M148.86,210.59c2.35,9.3,.61,18.77,1.15,28.14-2.67,1.42-5.33,2.83-8,4.25-1.09-.95-1.37-2.27-1.35-3.59,.09-6.91-.37-13.82,.2-20.72,2.67-2.7,5.34-5.39,8.01-8.09Z"/><path class="cls-21" d="M175.06,225.02c-3.66-3.04-1.18-7.18-1.4-10.6-.58-9.12,.16-18.33,.38-27.5,2.62,2.04,5.01,4.32,7.03,6.97,.12,9.48,.44,18.97-.96,28.41-1.51,1.23-3.14,2.24-5.05,2.73Z"/><path class="cls-32" d="M184.09,174.15c-2.06-2.43-2.11-5.24-1.6-8.18,.19-1.12,.69-2.33,.45-3.35-.9-3.82-.76-7.42,1.41-10.79,5.11,2.28,10.05,4.87,14.68,8.03-4.98,4.77-9.96,9.53-14.93,14.3Z"/><path class="cls-27" d="M164.31,140.88c-1.21,1.5-1.11,3.17-.93,5,.95,9.69,0,19.36-.35,29.04-.41,.42-.88,.52-1.42,.31-2.63-1.87-5.26-3.75-5.36-7.44,.87-9.32-.36-18.7,.8-28.02,.19-1.5-.14-2.79,1.99-1.76,1.97,.58,3.73,1.52,5.27,2.88Z"/><path class="cls-19" d="M140.85,218.68c2.24,5.18,1.07,10.6,1.15,15.94,.04,2.79,0,5.58,0,8.37-2.39,1.88-5.09,3.2-7.91,4.31-1.76-1.78-1.1-4.1-1.23-6.18-.3-4.46-.51-8.93-.99-13.37,2.99-3.02,5.98-6.04,8.97-9.07Z"/><path class="cls-33" d="M167.04,192.19c2.27,6.18,.37,12.61,1.15,18.85,.71,5.69-.6,11.49,1.09,17.1-1.1,.61-2.21,1.22-3.31,1.84-3.87,1.01-4.06-1.92-4.13-4.27-.17-5.43-.12-10.87,.03-16.31,.1-3.76,.26-7.53-.78-11.22l.38-1.05c.77-2.88,1.98-5.25,5.57-4.95Z"/><path class="cls-30" d="M161.09,198.19c.08,1.38,2.87-2.82,2.39,1.59-.97,8.9-.41,17.96-.46,26.95-.01,1.95,.93,3.1,2.94,3.25-2.32,1.83-4.93,3.13-7.69,4.16-.79-7.18-.22-14.37-.26-21.56-.02-3.16-.37-6.2-2.42-8.78,1.83-1.87,3.67-3.74,5.5-5.6Z"/><path class="cls-13" d="M135.13,124.96c2.63,.89,5,2.24,7.19,3.92,1.03,6.33,.95,12.72,.9,19.1-.01,1.49-.34,2.94-1.58,3.99-1.75,.95-2.85-.3-4.05-1.2-1.61-1.78-3.76-3.18-4.25-5.79-.13-4.82-.09-9.64-.21-14.46-.05-1.9-.99-4.57,2-5.56Z"/><path class="cls-18" d="M149.96,133.03c1.95,.59,3.72,1.52,5.24,2.88-1.08,6.18-.63,12.42-.77,18.64-.06,2.77,.11,5.65-2.41,7.67-.55,.28-1.13,.38-1.75,.31-2.54-.93-3.87-2.86-4.47-5.4-.6-6.23-.5-12.49-.12-18.71,.15-2.38-.26-6.1,4.28-5.39Z"/><path class="cls-25" d="M150.85,162.08c2.16-1.59,2.17-3.9,2.16-6.25-.03-4.96,0-9.92-.01-14.88,0-2.02-.14-4.05,2.2-5.03,1.48,.33,2.79,.97,3.84,2.09-1.65,1.68-.93,3.85-.97,5.76-.17,6.62-.08,13.24-.05,19.87,0,1.83,.06,3.65-.98,5.28-.32,.4-.73,.54-1.23,.41-2.6-1.76-4.74-3.85-4.95-7.24Z"/><path class="cls-23" d="M131.88,227.75c.95,1.3,2.24,2.28,2.18,4.25-.14,5.09,0,10.2,.04,15.29-2.18,1.58-4.44,3-7.04,3.8-2.23-.97-2.41-3.03-2.43-5-.04-3.78-.6-7.57,.27-11.33,2.05-2.62,4.36-4.98,6.98-7.03Z"/><path class="cls-31" d="M180.11,222.29c-.89-9.51-1.2-19,.96-28.41,2.47,1.59,4.17,3.92,5.93,6.18-.26,6.32,1.46,12.74-.92,18.96-1.75,1.52-3.81,2.49-5.97,3.26Z"/><path class="cls-36" d="M88.87,258.07c-1.16-1.84-.67-3.89-.67-5.84,.03-44.25,.09-88.51,.15-132.76,0-2.5-.03-5,.81-7.4,3.03,1.23,1.93,3.73,1.85,5.93-1,3.07-.51,6.23-.58,9.35-.05,3.55-.01,7.1,0,10.65-.01,3.02-.03,6.04,.02,9.06-.06,3.97-.02,7.94-.02,11.91-.02,3.4-.02,6.79,0,10.19-.02,5.06-.02,10.12,.01,15.18-1.38,23.63-.86,47.29-.95,70.94,0,.97,.21,2.01-.62,2.81Z"/><path class="cls-50" d="M120.33,116.87c2.95,1.79,6.46,2.55,9.08,4.95-.42,5.21,1.2,10.61-1.44,15.62-1.53,1.66-2.87,.48-4.23-.3-2.22-2.23-4.47-4.44-6.22-7.09-.14-.47-.18-.94-.15-1.43,.86-2.2,.6-4.51,.79-6.79,.14-1.71-1.14-4.5,2.18-4.97Z"/><path class="cls-37" d="M149.96,133.03c-3.02,.71-2.91,3.17-2.93,5.45-.07,6.55-.05,13.1-.07,19.66-.99,.35-1.74-.16-2.48-.69-1.37-1.64-3.79-2.6-3.51-5.32,2.52-6.16,.08-12.51,.73-18.75,.16-1.51-.65-3.15,.64-4.49,2.4,1.65,5.52,1.98,7.63,4.16Z"/><path class="cls-24" d="M186.08,219.03c.4-6.31-1.65-12.75,.92-18.96,4.59,3.38,8.32,7.64,12.1,11.84-4.07,2.86-8.5,5.08-13.02,7.11Z"/><path class="cls-48" d="M120.33,116.87c-.59,2.41-2,4.76-.73,7.34,1.06,2.15-.93,3.26-1.6,4.83-3.87,.02-5.02-3.73-7.62-5.47-1.74-2.21-4.64-3.58-4.94-6.83,1.09-2.62,2.38-5.01,5.8-4.83,3.26,1.23,6.28,2.92,9.09,4.96Z"/><path class="cls-3" d="M761.84,132.02h35.88v1c-9.33,0-18.67,.22-28-.09-4.47-.15-5.97,.99-5.93,5.74,.23,28.98,.12,57.96,.09,86.95,0,1.78,.47,3.64-.48,5.48-.94-1.84-.47-3.7-.47-5.48-.04-28.98,0-57.96-.06-86.95,0-1.9,.78-4.04-1.01-5.66,0-.33,0-.66-.01-.99Z"/><path class="cls-34" d="M124.9,234.77c1.75,2.88,.96,6.07,1.1,9.14,.11,2.44-.33,4.94,1.06,7.19-2.82,2-5.79,3.7-9.04,4.92-2.48-4.22-1.57-8.73-1.09-13.2,2.35-2.98,5.03-5.65,7.97-8.05Z"/><path class="cls-39" d="M126.98,138.07c1.36-3.67,.95-7.5,1.05-11.29,.04-1.74-.61-3.73,1.37-4.96,1.6,1.61,4.34,1.14,5.73,3.14-1.55,5.44-.82,10.96-.39,16.44,.11,1.44-.28,2.51-.77,3.69-.96,.45-1.82,.06-2.67-.34-2.02-1.84-4.34-3.5-4.32-6.67Z"/><path class="cls-35" d="M90.01,118.02c-.29-1.98,.73-4.16-.86-5.95,.63-3.29,2.27-5.63,5.8-6.2,4.35,2.88,8.32,6.13,10.51,11.06-.36,2.03-2.11,1.97-3.43,1.88-4.06-.26-8.07,.28-12.11,.41-.33-.43-.3-.83,.09-1.2Z"/><path class="cls-38" d="M116.93,242.82c2.09,4.26,.65,8.81,1.09,13.2-2.12,1.69-4.51,2.9-7.03,3.86-2.96-1.95-3.52-4.81-3.06-8.06,3-3,6-5.99,9-8.99Z"/><path class="cls-41" d="M107.93,251.81c1.02,2.69,2.04,5.38,3.06,8.06-5.29,2.77-9.85,7.75-16.79,5.43,4.58-4.5,9.15-8.99,13.72-13.49Z"/><path class="cls-6" d="M759.77,132.35v100.31h-.5v-100.51l.5,.2Z"/><path class="cls-5" d="M651.15,231.8v-100.69h.5v100.59l-.5,.1Z"/><path class="cls-7" d="M105.04,116.98c-3.36-3.7-6.73-7.41-10.09-11.11,3.52-1.75,6.28,.42,9.12,1.86,2.46,1.25,4.78,2.78,7.16,4.18-2.19,1.25-3.88,3-5.22,5.11-.34,.4-.66,.4-.97-.04Z"/><path class="cls-14" d="M88.87,258.07c.08-20.7,.15-41.39,.24-62.09,.02-3.97,.1-7.95,.16-11.92,.28-.05,.56-.09,.85-.14,.18,.22,.37,.44,.56,.66,1.11,2.46,.55,5.08,.78,7.63,.07,2.06-.26,4.03-1.43,5.79,0,18.59,.02,37.17-.03,55.76,0,1.75,.64,3.68-.88,5.21-.23-.25-.31-.55-.23-.89Z"/><path class="cls-5" d="M428.23,89.77V45.08h.5v44.74l-.5-.05Z"/><path d="M608.23,200.1c.11,12.29-7.98,21.53-18.8,21.5-10.92-.03-19.39-9.21-19.47-21.08-.08-12.34,8.16-21.53,19.35-21.62,11.16-.09,18.81,8.49,18.92,21.2Z"/><path d="M777.06,161.63c.45-4.4-2.38-11.85,1.03-14.71,3.27-2.74,10.46-.75,15.92-.92,4.9-.15,9.65,.15,13.79,3.24,5.53,4.13,7.99,11.13,6.15,17.72-1.89,6.79-7.58,11.49-15.01,11.83-6.31,.29-12.65-.02-18.98,.15-2.59,.07-3.02-1.08-2.96-3.3,.13-4.32,.04-8.66,.04-14.01Z"/><path class="cls-4" d="M907.44,199.69c4.21-.01,8.27,.62,12.11,2.46,2.13,1.02,2.9,2.29,2.03,4.73-3.5,9.74-15.34,15.99-25.14,13.09-3.76-1.11-6.68-3.19-7.2-7.37-.49-3.98,1.18-7.12,4.39-9.46,3.23-2.35,7.87-3.49,13.8-3.46Z"/><path d="M433.52,178.89c11.71-.05,19.89,8.7,20.08,21.47,.17,11.42-9.22,21.31-20.15,21.23-10.85-.08-19.76-9.52-19.78-20.96-.02-12.53,8.35-21.69,19.85-21.74Z"/><path d="M531.05,200.41c.04,11.68-9.07,21.29-20.07,21.16-10.79-.12-19.91-9.75-19.89-20.99,.02-12.28,8.71-21.68,20.06-21.69,11.79-.02,19.85,8.71,19.9,21.52Z"/><path class="cls-15" d="M90.02,198v-6c1.14-2.45,3.12-3.03,5.69-3.04,12.58-.05,25.15,.86,37.73,.3,8.92-.39,17.85-.09,26.78-.12,2.73-.01,5.63-.72,8.19,.98-.45,.69-.91,1.38-1.36,2.07-1.86,1.65-3.72,3.3-5.57,4.95-10-.05-20.01-.1-30.02-.14-12.48-.05-24.96,.04-37.43-.25-1.75-.04-2.73,.68-4.01,1.25Z"/><path class="cls-4" d="M673.7,199.11c0-8.47,3.5-14.31,10.17-18.19,5.79-3.37,11.73-3.42,17.44,.3,1.64,1.07,3.78,2.38,3.52,4.44-.21,1.6-2.65,1.69-4.15,2.31-8.72,3.65-17.48,7.22-26.98,11.13Z"/><path class="cls-42" d="M168.41,190.12c-5.77,.52-11.54,.25-17.32,.21-6.48-.05-13.11-.64-19.43,.25-9.71,1.37-19.33-1.82-28.96,.33-2.15,.48-4.52-.48-6.77-.73-2.51-.27-4.12,.66-5.91,1.82,0-2.66,0-5.33,0-7.99,2.56-2.38,5.83-2.75,8.9-2.17,9.8,1.84,19.58-.4,29.38,.37,11.24,.89,22.55-1.11,33.82,.23,2.34,.28,4.65-.17,6.95-.57,1.37,1.05,2.74,2.11,4.12,3.16-.04,.3-.05,.59-.03,.89-1.58,1.4-3.16,2.8-4.73,4.21Z"/><path d="M498.83,67.83c-.09-10.72,7.98-19.46,17.94-19.43,10.02,.03,18.28,8.73,18.26,19.25-.01,10.43-7.88,18.55-18.08,18.66-10.21,.11-18.04-7.88-18.13-18.48Z"/><path class="cls-47" d="M169.06,181.86c-1.25,3.88-4.51,2.09-6.74,2.02-7.13-.23-14.22-1.08-21.39,.04-4.83,.75-9.89,.22-14.65-.2-9.67-.86-19.34,1.78-28.97-.58-2.23-.54-4.85,.54-7.3,.87h0c-.87-1.69-.46-3.45-.27-5.2,.47-4.14,3.57-4.28,6.64-4.26,12.11,.07,24.23-.46,36.34-.06,9.78,.32,19.58-.41,29.36,.4,.31,.03,.62,.04,.94,.05,1.28,2.05,2.93,3.75,4.99,5.03,.35,.64,.69,1.28,1.04,1.91Z"/><path class="cls-43" d="M162.09,174.88c-.71,.37-1.41,1.05-2.12,1.05-11.11,0-22.22-.16-33.33-.15-11.05,0-22.11,.22-33.16,.19-2.34,0-2.21,2.16-3.46,3.04-.94-2.36-.46-4.77-.26-7.17,1.39-4.02,4.94-4.29,8.22-4.23,13.15,.23,26.31-.52,39.45,.07,3.85,.17,7.65-.3,11.48-.22,2.53,.05,4.99,.2,7.25,1.49,.29,0,.58-.02,.88-.04,1.69,1.99,3.37,3.98,5.06,5.97Z"/><path class="cls-52" d="M131.96,144.11c.67,.33,1.35,.65,2.02,.98,1.33,1.66,2.67,3.31,4,4.97-.7,3.47-3.66,3.85-6.16,3.66-13.8-1.04-27.61,.37-41.4-.33-1.87-1.78-.22-4.25-1.21-6.21v-9.14c.47-.25,.89-.17,1.26,.23,.4,.62,.6,1.32,.68,2.05-.22,2.52,1.15,2.93,3.35,2.87,7.93-.24,15.87-.05,23.8-.15,4.64-.06,9.15,.03,13.65,1.06Z"/><path class="cls-40" d="M90.02,153.01c.77-.3,1.53-.87,2.3-.87,12.51-.05,25.03-.24,37.53,.15,3.2,.1,5.74-.26,8.13-2.22,1,.69,1.99,1.37,2.99,2.06,1.33,1.66,2.66,3.31,3.99,4.97-.69,2.95-3.18,2.48-5.13,2.42-14.83-.51-29.66,1.16-44.49,.02-1.86-.14-3.52,.94-5.37,.67-.32-.46-.46-.97-.43-1.53,.21-1.88-.5-3.84,.48-5.65Z"/><path class="cls-44" d="M156.15,168.95c-9.79,.02-19.57,.05-29.36,.06-9.57,0-19.14,.03-28.71-.01-3.1-.01-5.91,.57-8.06,3.01-.78-1-.39-2.17-.49-3.27,.12-1.42-.32-2.9,.5-4.23,1.98-2.43,4.79-1.79,7.37-1.99,12.23-.96,24.46-.01,36.69,.02,5.3,.02,10.57-.26,15.86-.44,.3,0,.6-.01,.9-.03,1.76,2.29,3.53,4.58,5.3,6.87Z"/><path class="cls-46" d="M149.95,162.11c-.88,1.1-2.14,1.8-3.43,1.79-9.43-.04-18.85,.21-28.29-.2-9.4-.41-18.87-.41-28.22,1.31-.76-1.67-.75-3.33,0-5,1.35-1.74,3.12-2.3,5.26-1.97,7.12,1.09,14.22,.55,21.38,.1,7.53-.47,15.12,0,22.68,.12,1.99,.03,3.93,.15,5.61-1.18,.67,.35,1.33,.7,2,1.05,1,1.33,2,2.65,3,3.98Z"/><path class="cls-49" d="M90.01,118.02c0,.33,0,.66,0,1,1.59,1.74,1.31,3.55,.74,4.64,6.31-.85,13.37,.41,20.28-.69,2.32,2.02,4.64,4.05,6.97,6.07,.02,.31,.03,.63,.04,.94-2.14,3.6-5.9,2.97-9.14,3.23-6.29,.51-12.61-.17-18.92,.02-1.08-1.9,.13-4.11-.81-6.04,.16-3.07-1.08-6.27,.84-9.18Z"/><path class="cls-42" d="M90.01,169.01c0,1,0,1.99,0,2.99,0,2.33,0,4.66,0,6.99,0,1.67,0,3.34-.01,5.01-.25,0-.5,.02-.75,.06,0-5,0-10,0-15.01,.22-.51,.47-.5,.75-.05Z"/><path class="cls-46" d="M90.02,153.01c0,2,0,4,0,6-.24,.42-.49,.44-.77,.04-.01-3.96-.02-7.91-.03-11.87,1.53,1.77,.5,3.89,.81,5.82Z"/><path class="cls-51" d="M89.18,127.2c1.6,1.75,.52,3.88,.84,5.82,1.45,1.67,1.41,3.34,0,5-.27,0-.54,.01-.81,.03,0-3.62-.02-7.23-.03-10.85Z"/><path class="cls-43" d="M89.24,159.05c.26-.03,.51-.04,.77-.04,0,.33,0,.66,0,1,0,1.67,0,3.33,0,5,0,1.34,0,2.67,0,4.01-.25,0-.5,.01-.75,.05,0-3.34,0-6.67-.01-10.01Z"/><path class="cls-51" d="M131.96,144.11c-6.22,.05-12.43,.18-18.65,.12-7.59-.08-15.17-.22-23.04,.6-.78-1.27-.02-3.1-.26-4.82,.78-3.18,3.16-3.23,5.8-3.14,9.4,.34,18.79,0,28.17-.8,1,.66,2,1.33,3,2,1.66,2.01,3.31,4.02,4.97,6.03Z"/><path class="cls-45" d="M123.98,136.08c-1.1,2.32-3.24,2.01-5.19,1.92-8.18-.36-16.35,1.35-24.52,.02-1.93-.32-3.08,.82-4.25,2,0-.67,0-1.33,0-2,0-1.67,0-3.33,0-5,1.62-1.12,3.16-1.36,5.33-1.27,7.59,.33,15.34,1.39,22.69-1.76,2.54,1.49,4.1,3.93,5.95,6.09Z"/><path class="cls-36" d="M111.03,122.97c-2.62,2.65-6.12,1.35-9.18,2.05-3.85,.89-7.67-1.96-11.84,.04,0-2.09,0-4.07,0-6.04,3.1-1.88,6.57-1.77,9.91-1.4,1.87,.21,3.47,.14,5.11-.63,.32,.02,.64,.03,.97,.04,1.67,1.98,3.35,3.96,5.02,5.94Z"/></g></svg>